<?xml version="1.0" encoding="UTF-8"?>
<svg xmlns="http://www.w3.org/2000/svg" xmlns:xlink="http://www.w3.org/1999/xlink" viewBox="0 0 50 50" width="50px" height="50px">
<g id="surface56187094">
<path style=" stroke:none;fill-rule:nonzero;fill:rgb(0%,0%,0%);fill-opacity:1;" d="M 43.71875 0.429688 L 6.28125 0.429688 C 3.054688 0.429688 0.429688 3.054688 0.429688 6.28125 L 0.429688 43.71875 C 0.429688 46.945312 3.054688 49.570312 6.28125 49.570312 L 43.71875 49.570312 C 46.945312 49.570312 49.570312 46.945312 49.570312 43.71875 L 49.570312 6.28125 C 49.570312 3.054688 46.945312 0.429688 43.71875 0.429688 Z M 39.046875 21.867188 C 38.78125 21.890625 38.511719 21.910156 38.238281 21.910156 C 35.171875 21.910156 32.472656 20.332031 30.90625 17.945312 C 30.90625 24.203125 30.90625 31.324219 30.90625 31.441406 C 30.90625 36.953125 26.4375 41.417969 20.929688 41.417969 C 15.417969 41.417969 10.953125 36.953125 10.953125 31.441406 C 10.953125 25.933594 15.417969 21.464844 20.929688 21.464844 C 21.136719 21.464844 21.339844 21.484375 21.546875 21.5 L 21.546875 26.414062 C 21.339844 26.390625 21.140625 26.351562 20.929688 26.351562 C 18.117188 26.351562 15.835938 28.632812 15.835938 31.445312 C 15.835938 34.257812 18.117188 36.535156 20.929688 36.535156 C 23.742188 36.535156 26.226562 34.320312 26.226562 31.507812 C 26.226562 31.394531 26.273438 8.582031 26.273438 8.582031 L 30.972656 8.582031 C 31.414062 12.785156 34.808594 16.101562 39.046875 16.402344 Z M 39.046875 21.867188 "/>
</g>
</svg>
