<svg xmlns="http://www.w3.org/2000/svg" viewBox="0 0 252.81 55.94">
  <defs>
    <style>
      .cls-1 {
        fill: #010101;
      }

      .cls-2 {
        font-size: 44px;
        fill: #1d1d1b;
        font-family: AgencyFB-Reg, Agency FB;
      }
    </style>
  </defs>
  <g id="Warstwa_2" data-name="Warstwa 2">
    <g id="Tekst">
      <g>
        <g>
          <path class="cls-1" d="M164.15,25.85a.81.81,0,0,0-1-.73,4.25,4.25,0,0,0-.77.17,3.41,3.41,0,0,1-.24-2.22,9.23,9.23,0,0,0-.25-5A8.53,8.53,0,0,0,159.44,14a21.59,21.59,0,0,0-2.8-1.81A11.79,11.79,0,0,0,151,10.46a15.15,15.15,0,0,0-7.74,1.88,9.9,9.9,0,0,0-5.5,8.67,39.49,39.49,0,0,0,.22,4.33c0,.09,0,.19,0,.31a7.32,7.32,0,0,0-.89-.2,1,1,0,0,0-1.08.46,2.71,2.71,0,0,0-.24,1.84,3,3,0,0,1,.55-1.8.53.53,0,0,1,.82-.21,1.12,1.12,0,0,1,.6,1c0,1.17,0,2.35,0,3.52a6.63,6.63,0,0,0,.91,3.41s0,.21-.07.28a.27.27,0,0,1-.26,0,2.25,2.25,0,0,1-.31-.35,1.16,1.16,0,0,0,.69.77.57.57,0,0,1,.38.48,16.65,16.65,0,0,0,2.18,5.37,3.21,3.21,0,0,1,.31.5,2.52,2.52,0,0,1,.22.79c0,.8,0,1.6-.05,2.4a1.29,1.29,0,0,1-.63,1.12q-4.65,2.49-9.29,4.95l.16.33c.17-.1.35-.22.53-.31.84-.4,1.69-.77,2.54-1.15a.26.26,0,0,0,.1-.07,3.12,3.12,0,0,1,1.28-.9c.55-.27,1.1-.55,1.65-.8.74-.35,1.49-.67,2.23-1,.39-.18.88-.24,1-.84,0-.24.35-.42.47-.67a5.15,5.15,0,0,0,.21-2.34v-.79c.15.36.28.7.44,1s.35.53.47.82a6,6,0,0,1,.19.86,2.33,2.33,0,0,0,1,1.23c.54.45,1.06.93,1.59,1.39a3.52,3.52,0,0,0,.69.53,6.67,6.67,0,0,0,.92.33c.42.14.83.3,1.25.41a10.06,10.06,0,0,0,1.35.26,10.36,10.36,0,0,0,1.76.06,12.7,12.7,0,0,0,1.7-.32,3.88,3.88,0,0,0,1.7-.74,22.61,22.61,0,0,0,1.77-1.76,10,10,0,0,0,.83-1.11c.1-.17.1-.4.2-.57.31-.53.87-.88,1-1.5a3,3,0,0,1,.08-.32c.08-.18.17-.36.26-.54l.07,0c0,.54.11,1.07.17,1.63,0-.52,0-1,0-1.5a4.37,4.37,0,0,1,.08-1.26,18.89,18.89,0,0,1,1-2.27,8.36,8.36,0,0,0,1.11-3.51A.6.6,0,0,1,162,34a1.09,1.09,0,0,0,.71-.92,9.45,9.45,0,0,1,.32-1.84,3.84,3.84,0,0,0-.42,1.51,1.1,1.1,0,0,1-.93,1.2,7.07,7.07,0,0,1,.1-.82,17.76,17.76,0,0,0,.53-3.84c0-.52,0-1,0-1.56s0-1,0-1.49a1,1,0,0,1,1-.92.85.85,0,0,1,.89.87,10.19,10.19,0,0,1-.16,1.55c-.15.74-.35,1.48-.52,2.22.23-.84.51-1.68.69-2.53A4.93,4.93,0,0,0,164.15,25.85ZM151,42.56c-.26-.38.28-.51.18-.8C151.46,42.09,151.2,42.29,151,42.56ZM156.33,40l-.2-.49-.11,0a.75.75,0,0,0,0,.26c.1.15.21.26.12.49a2,2,0,0,0-.09.7c0,.3-.19.4-.47.41l0,.43-.35,0,.35.61-.74-.36-.27.43.14.26-.41-.2,0,.23c-.66-.16-.66-.16-.95.83l-.47-.55-.69.17c0-.39-.22-.42-.42-.28l-.32-.61a.17.17,0,0,1,0-.14c.25-.36,0-.72,0-1.09l.46-.1a5.72,5.72,0,0,0-.49-.68.42.42,0,0,0-.33,0,4.76,4.76,0,0,0-.2.74.63.63,0,0,0,0,.3c.15.57-.22,1-.38,1.48a.28.28,0,0,1-.25.1,4.42,4.42,0,0,1-.4-.23v.36h-.09l0-.21-.14.12c-.16-.44-.49-.56-1-.38l-.44-.42-.33.11c0-.26-.44-.33-.24-.67-.17-.25-.8.22-.7-.45l-.28-.06c-.13-.53-.58-.12-.84-.35l0-.37-.65-.35-.05-.09c.62-.09.52-.56.6-.94s.6-.54,1-.5a2.54,2.54,0,0,1,1.12.28c.18.11.52,0,.82,0l.09.21c.13-.13.24-.25.39-.42v.25s.06,0,.08,0a24.24,24.24,0,0,1,3.61-.24c.21,0,.41-.05.62-.06.64,0,1.28,0,1.92,0,.39,0,.84.17.94.63C156.41,39.42,156.62,39.7,156.33,40Zm5.17-9c-.27.89-.39,1.83-.6,2.74a2.53,2.53,0,0,1-.38,1.24.81.81,0,0,0-.1.5c0,.5-.4.82-.53,1.25,0,0,0,.11-.08.11-.4,0-.36.39-.5.61s-.31.48-.46.73c0,.09-.07.2-.12.3a1.48,1.48,0,0,1-.16.27c-.15.18-.31.35-.47.53l.07.08h-.32a2.61,2.61,0,0,1-.14.55.63.63,0,0,1-.35.22c0,.12,0,.35-.31.28l0-.4L157,40c0-.07-.11-.2-.09-.21.41-.31.1-.64,0-.95a4.09,4.09,0,0,0-.29-.68c-.07-.15-.16-.28-.27-.47,0,.27,0,.46,0,.65l-.1,0-.38-.73a1.26,1.26,0,0,1-1-.23s-.15,0-.3,0-.11-.16-.2-.31l-.14.25c-.23-.13-.46-.27-.69-.38-.06,0-.16,0-.26,0l-.29-.79-.1,0,.1.36-.32-.24-.06.3a3,3,0,0,0-.46-.25,2,2,0,0,0-.51,0c0,.23-.07.47-.11.7-.2.33-.19.39.16.9l.65,0,.07-.15.52.46,0-.1a3.09,3.09,0,0,0,.43,0,1.48,1.48,0,0,0,.27-.1c.24-.09.48-.15.69.2-.56.08-1.07.18-1.58.22a7.76,7.76,0,0,1-1.18,0l-2.24-.16c-.27,0-.49-.17-.48-.34a5.37,5.37,0,0,0,.83-.11c.1,0,.18-.16.23-.26s.13-.28.2-.41l.28-.53-.08-.08-.54.21c.09-.21.15-.37.2-.5a9.82,9.82,0,0,0-1.17-.19c-.13,0-.29.15-.39.27s-.41.48-.63.75c-.24-.35-.37-.28-.65.2l-.59-.25.16-.15a9.49,9.49,0,0,0-1.06.22,1,1,0,0,0-.49.36c-.25.43-.44.9-.67,1.35,0,.08-.18.11-.22.19a4,4,0,0,0-.31.66c-.19.55-.45.6-.91.25a2.34,2.34,0,0,1-.66-.87c-.42-.82-.89-1.6-1.34-2.4-.31-.54-.61-1.07-.9-1.62s-.67-1.22-1-1.86a3.22,3.22,0,0,1-.23-1c-.07-.71-.1-1.43-.15-2.14,0-.34-.09-.67-.12-1s0-.47,0-.7,0-.66-.06-1,0-.44,0-.66,0-.67,0-1a.18.18,0,0,0,0-.13,2.26,2.26,0,0,1-.37-1.26v-.88c0-.48,0-1,0-1.44a4.07,4.07,0,0,1,.07-.61,14.69,14.69,0,0,1,.29-1.47,8.59,8.59,0,0,1,.55-1.34,4.74,4.74,0,0,1,1.14-1.67c.35-.31.66-.67,1-1a2.34,2.34,0,0,1,.54-.34c.39-.2.78-.38,1.18-.56a1.21,1.21,0,0,1,.34-.07c.17-.07.36-.12.54-.2a6.76,6.76,0,0,0,.71-.36.69.69,0,0,1,1.09.37,4.3,4.3,0,0,0,.34.59l.06,0-.08-.32.44.17,0-.24.07-.06c.12.44.18.95.88.7l.14-.37.29.18c-.35.34.11.4.15.65.12-.21.12-.2.7.47l.44-.48v.57l.07,0,.3-.54h.11c0,.18,0,.37.05.57l.46,0,.17-.34c.06.42.34.37.65.41a4.81,4.81,0,0,1,.13-.66.74.74,0,0,1,.37-.35l-.13.43.07,0,.09-.26.53.55.46-.44c.13.22.41-.36.47.16.39-.38.78-.68.64-1.35l-.15.51a.6.6,0,0,1,0-.72c.14-.21.34-.43-.09-.64l.63-.2c-.09.33-.15.6-.22.86l.07,0,.39-.35,0-.36c.43,0,.43,0,.5.73a2.08,2.08,0,0,1,.15-.24,1.56,1.56,0,0,1,.16-.2l.12,0-.15.64a6.06,6.06,0,0,1,.63-.76,1.61,1.61,0,0,1,.6-.24s.14.13.17.22a1.45,1.45,0,0,1,0,.41l.41-.56.37.89c.19-.27.4-.36.64-.11a.15.15,0,0,0,.09,0c.69,0,1,.52,1.41.93s.82.87,1.22,1.32a1.5,1.5,0,0,1,.26.36,11.09,11.09,0,0,1,.71,1.77,8,8,0,0,1,.14,1.89,50.51,50.51,0,0,0,.08,5.9A10.52,10.52,0,0,1,161.5,30.94Z"/>
          <path class="cls-1" d="M137.44,32.87l-1.67-4.16.09-.05c.14.3.29.59.41.9a11.77,11.77,0,0,0,.78,1.86c.33.49.24,1.07.58,1.53h0A.15.15,0,0,1,137.44,32.87Z"/>
          <path class="cls-1" d="M169.64,49.17l-1.38-.71c-.91-.46-1.84-.87-2.77-1.29-1.66-.75-3.34-1.48-5-2.22a2.39,2.39,0,0,0-.43-.14l-.13.17.32.16a10.62,10.62,0,0,0,1,.6c1.52.68,3.06,1.31,4.56,2,1.16.55,2.32,1.12,3.47,1.69Z"/>
        </g>
        <text/>        <text class="cls-2" transform="translate(0 47.13)">BRODACZ</text>
        <text class="cls-2" transform="translate(169.64 47.13)">MEDIA</text>
      </g>
    </g>
  </g>
</svg>
