<svg xmlns="http://www.w3.org/2000/svg" viewBox="0 0 248.77 50.3">
  <defs>
<style>
  .cls-1 {
    fill: #010101;
  }

  .cls-2 {
    fill: #1d1d1b;
  }
</style>
</defs>
  <g id="Warstwa_2" data-name="Warstwa 2">
    <g id="Warstwa_1-2" data-name="Warstwa 1">
      <g>
        <path class="cls-1" d="M161.46,25.85a.8.8,0,0,0-1-.73,4.34,4.34,0,0,0-.76.17,3.29,3.29,0,0,1-.24-2.22,9.33,9.33,0,0,0-.25-5,8.62,8.62,0,0,0-2.5-4.14,20.31,20.31,0,0,0-2.8-1.81,11.79,11.79,0,0,0-5.66-1.69,15.16,15.16,0,0,0-7.75,1.88A9.91,9.91,0,0,0,135,21a37.18,37.18,0,0,0,.23,4.33v.31a7.45,7.45,0,0,0-.9-.2,1,1,0,0,0-1.08.46,2.77,2.77,0,0,0-.23,1.84,3,3,0,0,1,.54-1.8.54.54,0,0,1,.83-.21,1.13,1.13,0,0,1,.59,1c0,1.17,0,2.35,0,3.52a6.64,6.64,0,0,0,.92,3.41s0,.21-.08.28a.25.25,0,0,1-.25,0,2.25,2.25,0,0,1-.31-.35,1.17,1.17,0,0,0,.68.77c.26.09.32.25.38.48a16.45,16.45,0,0,0,2.19,5.37,2.55,2.55,0,0,1,.3.5,2.28,2.28,0,0,1,.22.79c0,.8,0,1.6,0,2.4A1.28,1.28,0,0,1,138.4,45q-4.64,2.49-9.29,4.95c.06.11.11.22.16.33.18-.1.35-.22.54-.31.83-.4,1.69-.77,2.53-1.15a.26.26,0,0,0,.1-.07,3.15,3.15,0,0,1,1.29-.9c.55-.27,1.09-.55,1.65-.8.74-.35,1.49-.67,2.22-1,.4-.18.88-.24,1-.84,0-.24.36-.42.48-.67a5.15,5.15,0,0,0,.2-2.34c0-.26,0-.53,0-.79.15.36.28.7.44,1s.36.53.47.82a6,6,0,0,1,.19.86,2.38,2.38,0,0,0,1,1.23c.55.45,1.06.93,1.6,1.39a3.78,3.78,0,0,0,.68.53,7.77,7.77,0,0,0,.92.33c.42.14.83.3,1.26.41a10.23,10.23,0,0,0,1.34.26,10.48,10.48,0,0,0,1.77.06,12.27,12.27,0,0,0,1.69-.32,3.78,3.78,0,0,0,1.7-.74,22.73,22.73,0,0,0,1.78-1.76,8.83,8.83,0,0,0,.82-1.11c.11-.17.11-.4.21-.57.3-.53.86-.88,1-1.5a1.67,1.67,0,0,1,.08-.32c.07-.18.16-.36.25-.54l.07,0c.06.54.11,1.07.17,1.63,0-.52,0-1,0-1.5a4,4,0,0,1,.09-1.26,20.58,20.58,0,0,1,1-2.27,8.09,8.09,0,0,0,1.11-3.51.59.59,0,0,1,.42-.6,1.1,1.1,0,0,0,.71-.92,9.43,9.43,0,0,1,.31-1.84,4,4,0,0,0-.41,1.51,1.1,1.1,0,0,1-.94,1.2,7,7,0,0,1,.11-.82,18.4,18.4,0,0,0,.53-3.84c0-.52,0-1-.05-1.56s0-1,0-1.49a1,1,0,0,1,1-.92.84.84,0,0,1,.89.87,9.06,9.06,0,0,1-.16,1.55c-.14.74-.34,1.48-.52,2.22.24-.84.52-1.68.7-2.53A4.93,4.93,0,0,0,161.46,25.85ZM148.29,42.56c-.27-.38.27-.51.17-.8C148.78,42.09,148.52,42.29,148.29,42.56ZM153.64,40l-.2-.49-.11,0a.58.58,0,0,0,0,.26c.1.15.21.26.11.49a2,2,0,0,0-.09.7c0,.3-.18.4-.47.41l0,.43-.35,0,.36.61-.74-.36-.27.43.13.26-.4-.2,0,.23c-.66-.16-.66-.16-.94.83l-.47-.55-.7.17c0-.39-.22-.42-.42-.28l-.32-.61a.17.17,0,0,1,0-.14c.25-.36,0-.72,0-1.09l.45-.1a5.71,5.71,0,0,0-.48-.68.42.42,0,0,0-.33,0,3.86,3.86,0,0,0-.2.74.77.77,0,0,0,0,.3c.15.57-.21,1-.38,1.48a.26.26,0,0,1-.24.1,2.73,2.73,0,0,1-.4-.23v.36h-.09l-.05-.21L147,43c-.16-.44-.49-.56-1-.38l-.44-.42-.33.11c0-.26-.44-.33-.24-.67-.17-.25-.79.22-.69-.45l-.28-.06c-.14-.53-.59-.12-.85-.35l0-.37-.65-.35L142.5,40c.63-.09.52-.56.6-.94s.6-.54,1-.5a2.51,2.51,0,0,1,1.12.28c.18.11.52,0,.83,0l.08.21.4-.42v.25s.06,0,.08,0a24.15,24.15,0,0,1,3.61-.24l.61-.06c.64,0,1.29,0,1.93,0,.38,0,.84.17.93.63C153.73,39.42,153.94,39.7,153.64,40Zm5.17-9c-.27.89-.38,1.83-.6,2.74-.1.42-.05.87-.37,1.24a.81.81,0,0,0-.11.5c0,.5-.39.82-.53,1.25,0,0,0,.11-.07.11-.41,0-.37.39-.5.61s-.32.48-.46.73a2.71,2.71,0,0,0-.13.3,1.43,1.43,0,0,1-.15.27c-.15.18-.32.35-.47.53l.07.08h-.32a3.44,3.44,0,0,1-.15.55.63.63,0,0,1-.35.22c0,.12.06.35-.3.28l0-.4,0,0a.88.88,0,0,1-.1-.21c.42-.31.11-.64,0-.95a4.13,4.13,0,0,0-.3-.68c-.07-.15-.15-.28-.26-.47,0,.27,0,.46,0,.65l-.09,0-.38-.73a1.24,1.24,0,0,1-1-.23c-.06,0-.16,0-.3,0l-.21-.31-.14.25c-.23-.13-.45-.27-.69-.38-.06,0-.15,0-.25,0-.1-.25-.2-.52-.3-.79l-.1,0,.1.36-.32-.24-.06.3a2.93,2.93,0,0,0-.45-.25,2,2,0,0,0-.51,0l-.12.7c-.2.33-.19.39.17.9l.64,0,.07-.15.52.46,0-.1a3,3,0,0,0,.42,0,1.48,1.48,0,0,0,.27-.1c.25-.09.49-.15.69.2-.56.08-1.06.18-1.57.22a7.94,7.94,0,0,1-1.19,0l-2.23-.16c-.28,0-.5-.17-.48-.34a5.71,5.71,0,0,0,.83-.11c.09,0,.17-.16.23-.26s.12-.28.19-.41.19-.36.29-.53l-.09-.08-.53.21c.08-.21.14-.37.2-.5a10.32,10.32,0,0,0-1.18-.19c-.12,0-.28.15-.39.27a9.51,9.51,0,0,0-.62.75c-.25-.35-.37-.28-.66.2L144,37l.16-.15a9.66,9.66,0,0,0-1.07.22.92.92,0,0,0-.48.36c-.26.43-.45.9-.68,1.35,0,.08-.17.11-.22.19a4.93,4.93,0,0,0-.3.66c-.19.55-.45.6-.91.25a2.37,2.37,0,0,1-.67-.87c-.42-.82-.89-1.6-1.34-2.4-.3-.54-.61-1.07-.9-1.62s-.67-1.22-.95-1.86a3.23,3.23,0,0,1-.24-1c-.07-.71-.09-1.43-.15-2.14,0-.34-.08-.67-.11-1s0-.47,0-.7,0-.66-.07-1,0-.44,0-.66l0-1a.18.18,0,0,0,0-.13,2.18,2.18,0,0,1-.36-1.26v-.88q0-.72,0-1.44a4.07,4.07,0,0,1,.06-.61,14.69,14.69,0,0,1,.29-1.47,11.1,11.1,0,0,1,.55-1.34,5,5,0,0,1,1.14-1.67c.35-.31.66-.67,1-1a2.09,2.09,0,0,1,.53-.34c.39-.2.79-.38,1.19-.56a1.21,1.21,0,0,1,.33-.07c.18-.07.36-.12.54-.2a5.91,5.91,0,0,0,.71-.36.69.69,0,0,1,1.09.37,4.36,4.36,0,0,0,.35.59l.06,0-.08-.32.43.17,0-.24.08-.06c.11.44.17.95.87.7l.14-.37.29.18c-.34.34.11.4.16.65.11-.21.12-.2.69.47l.45-.48v.57l.06,0L147,16h.11c0,.18,0,.37.05.57l.47,0,.17-.34c.05.42.33.37.65.41a3.67,3.67,0,0,1,.13-.66.72.72,0,0,1,.36-.35l-.13.43.08,0,.09-.26.52.55c.18-.17.32-.31.47-.44.13.22.41-.36.46.16.39-.38.78-.68.65-1.35l-.15.51a.6.6,0,0,1,0-.72c.14-.21.34-.43-.09-.64l.63-.2c-.08.33-.15.6-.22.86l.07,0,.39-.35-.05-.36c.43,0,.43,0,.5.73.07-.1.11-.18.15-.24l.16-.2.12,0c0,.21-.09.42-.15.64a7.07,7.07,0,0,1,.63-.76,1.76,1.76,0,0,1,.6-.24s.15.13.17.22a1.45,1.45,0,0,1,0,.41l.41-.56.38.89c.19-.27.39-.36.63-.11a.15.15,0,0,0,.09,0c.7,0,1,.52,1.41.93s.83.87,1.23,1.32a1.5,1.5,0,0,1,.26.36,11,11,0,0,1,.7,1.77,7.46,7.46,0,0,1,.14,1.89,55.31,55.31,0,0,0,.08,5.9A10.52,10.52,0,0,1,158.81,30.94Z"/>
        <path class="cls-1" d="M134.76,32.87l-1.68-4.16.1-.05c.14.3.28.59.41.9a11.77,11.77,0,0,0,.78,1.86c.32.49.24,1.07.57,1.53h0A.14.14,0,0,1,134.76,32.87Z"/>
        <path class="cls-1" d="M167,49.17l-1.38-.71c-.91-.46-1.84-.87-2.77-1.29-1.67-.75-3.34-1.48-5-2.22a2,2,0,0,0-.43-.14l-.12.17.31.16c.35.2.67.44,1,.6,1.52.68,3.06,1.31,4.56,2,1.17.55,2.32,1.12,3.48,1.69Z"/>
      </g>
    </g>
    <g id="Tekst">
      <text/>      <g>
        <path class="cls-2" d="M13.47,44.74a2.29,2.29,0,0,1-2.38,2.39H0V13.5H11a2.28,2.28,0,0,1,2.38,2.39v10a2.69,2.69,0,0,1-1.2,2.23L9.82,29.53l2.53,1.64a2.31,2.31,0,0,1,1.12,2.14ZM10.38,26.27V16.15H3V28.29h4.4Zm.08,18.22V32.86l-3-2H3v13.6Z"/>
        <path class="cls-2" d="M33,47.13H29.86l-6.25-18,.41-.6h5.33V16.15H21.68v31h-3V13.5H30a2.28,2.28,0,0,1,2.38,2.39V28.65c0,1.62-1.08,2.43-3.26,2.43l-.95,0-.9,0Q30.12,39.05,33,47.13Z"/>
        <path class="cls-2" d="M51.67,44.74A2.3,2.3,0,0,1,51,46.46a2.33,2.33,0,0,1-1.73.67H39.85a2.28,2.28,0,0,1-2.38-2.39V15.89a2.28,2.28,0,0,1,2.38-2.39h9.41a2.37,2.37,0,0,1,1.73.67,2.33,2.33,0,0,1,.68,1.72Zm-3-.25V16.15H40.46V44.49Z"/>
        <path class="cls-2" d="M70.9,41.05a5.88,5.88,0,0,1-1.75,4.37,6.07,6.07,0,0,1-4.42,1.71H57V13.5h7.69a6.06,6.06,0,0,1,4.43,1.71,5.87,5.87,0,0,1,1.74,4.37Zm-3-.3V19.84a3.59,3.59,0,0,0-1-2.67,3.68,3.68,0,0,0-2.7-1H60V44.49h4a4.06,4.06,0,0,0,2.83-1A3.56,3.56,0,0,0,67.91,40.75Z"/>
        <path class="cls-2" d="M89.7,47.13h-3l-1.18-7.48H78.87l-1.18,7.48H74.81V47l6-33.62h3ZM85.16,37,82.22,18.79,79.26,37Z"/>
        <path class="cls-2" d="M107.21,44.74a2.27,2.27,0,0,1-.69,1.72,2.38,2.38,0,0,1-1.74.67H96.12a2.28,2.28,0,0,1-2.38-2.39V15.89a2.28,2.28,0,0,1,2.38-2.39h8.66a2.42,2.42,0,0,1,1.74.67,2.3,2.3,0,0,1,.69,1.72v7.82h-3V16.15H96.72V44.49h7.48V36.21h3Z"/>
        <path class="cls-2" d="M123.69,47.13h-12.9V45.54l9.46-29.39h-8.53V13.5h12v1.55l-9.46,29.44h9.46Z"/>
      </g>
      <g>
        <path class="cls-2" d="M186.27,47.13h-2.81V25.84c0-.3.1-1.18.3-2.65L178.26,44h-.6l-5.5-20.78c.2,1.48.3,2.36.3,2.65V47.13h-2.82V13.5h2.78l5.45,21.88a7.08,7.08,0,0,1,.09,1,9.51,9.51,0,0,1,.08-1L183.5,13.5h2.77Z"/>
        <path class="cls-2" d="M202.69,47.13H191.64V13.5h10.92v2.65h-7.93V28.69h7.22v2.69h-7.22v13.1h8.06Z"/>
        <path class="cls-2" d="M221.21,41.05a5.88,5.88,0,0,1-1.75,4.37A6.07,6.07,0,0,1,215,47.13h-7.69V13.5H215a6.06,6.06,0,0,1,4.43,1.71,5.87,5.87,0,0,1,1.74,4.37Zm-3-.3V19.84a3.59,3.59,0,0,0-1-2.67,3.71,3.71,0,0,0-2.7-1h-4.15V44.48h4a4,4,0,0,0,2.82-1A3.53,3.53,0,0,0,218.22,40.75Z"/>
        <path class="cls-2" d="M229.61,47.13h-3V13.5h3Z"/>
        <path class="cls-2" d="M248.77,47.13h-3l-1.19-7.48h-6.68l-1.18,7.48h-2.88V47l6-33.62h2.94ZM244.24,37l-3-18.22-3,18.22Z"/>
      </g>
    </g>
  </g>
</svg>
