<?xml version="1.0" encoding="UTF-8"?>
<svg xmlns="http://www.w3.org/2000/svg" xmlns:xlink="http://www.w3.org/1999/xlink" viewBox="0 0 50 50" width="50px" height="50px">
<g id="surface56034527">
<path style=" stroke:none;fill-rule:nonzero;fill:rgb(0%,0%,0%);fill-opacity:1;" d="M 41.800781 4 C 34.671875 3.992188 30.742188 7.988281 28.328125 15.773438 C 29.589844 15.304688 30.855469 14.726562 32.003906 14.726562 C 34.421875 14.726562 35.226562 15.625 34.878906 18.414062 C 34.765625 20.15625 34.078125 22.96875 32.003906 26.222656 C 29.933594 29.359375 28.132812 30.25 27.101562 30.25 C 25.835938 30.25 24.878906 28.433594 23.84375 23.550781 C 23.5 22.15625 22.695312 19.019531 21.773438 13.097656 C 20.96875 7.636719 18.292969 4.703125 14.5 5.050781 C 12.890625 5.164062 10.96875 6.660156 7.75 9.449219 C 5.449219 11.542969 3.265625 13.050781 0.851562 15.144531 L 3.152344 18.09375 C 5.332031 16.582031 6.601562 16 6.945312 16 C 8.554688 16 10.046875 18.554688 11.542969 23.785156 C 12.804688 28.546875 14.183594 33.308594 15.453125 38.070312 C 17.402344 43.300781 19.820312 45.855469 22.582031 45.855469 C 27.179688 45.855469 32.695312 41.675781 39.25 33.078125 C 45.683594 24.945312 48.921875 18.210938 49.148438 13.449219 C 49.378906 7.179688 46.855469 4.113281 41.800781 4 Z M 41.800781 4 "/>
</g>
</svg>
