<svg xmlns="http://www.w3.org/2000/svg" width="64" height="64" shape-rendering="geometricPrecision" text-rendering="geometricPrecision" image-rendering="optimizeQuality" fill-rule="evenodd" clip-rule="evenodd" viewBox="0 0 640 640"><path d="M579.999 0H60C27 0 0 27 0 60v520c0 33 27 60 60 60h519.999c33 0 60-27 60-60V60c0-33-27-60-60-60zm-41.48 212.53c-1.997 45-33.52 106.643-94.372 184.88-62.87 81.757-116.116 122.635-159.64 122.635-27 0-49.76-24.886-68.375-74.647-12.508-45.638-24.874-91.23-37.347-136.88-13.76-49.748-28.642-74.634-44.48-74.634-3.473 0-15.65 7.24-36.237 21.756L76.31 227.647c22.867-20.008 45.355-40.134 67.49-60.13 30.52-26.245 53.244-40.123 68.48-41.517 36.001-3.472 58.112 21.119 66.474 73.761 9 56.883 15.236 92.115 18.768 105.993 10.346 47.127 21.756 70.654 34.24 70.654 9.638 0 24.237-15.248 43.643-45.886 19.417-30.65 29.764-53.883 31.11-69.875 2.776-26.374-7.63-39.638-31.11-39.638-11.126 0-22.524 2.516-34.24 7.63 22.747-74.363 66.13-110.635 130.241-108.486 47.516 1.358 69.875 32.126 67.123 92.351l-.012.024z"/></svg>