<?xml version="1.0" encoding="UTF-8"?>
<svg xmlns="http://www.w3.org/2000/svg" xmlns:xlink="http://www.w3.org/1999/xlink" viewBox="0 0 50 50" width="50px" height="50px">
<g id="surface56016088">
<path style=" stroke:none;fill-rule:nonzero;fill:rgb(0%,0%,0%);fill-opacity:1;" d="M 6.28125 0.429688 C 3.050781 0.429688 0.429688 3.050781 0.429688 6.28125 L 0.429688 43.71875 C 0.429688 46.949219 3.050781 49.570312 6.28125 49.570312 L 43.71875 49.570312 C 46.949219 49.570312 49.570312 46.949219 49.570312 43.71875 L 49.570312 6.28125 C 49.570312 3.050781 46.949219 0.429688 43.71875 0.429688 Z M 13.300781 5.109375 L 16.109375 5.109375 L 17.980469 9.789062 L 19.851562 5.109375 L 22.660156 5.109375 L 19.148438 13.300781 L 19.148438 17.980469 L 16.808594 17.980469 L 16.808594 13.289062 C 16.109375 11.40625 13.78125 6.292969 13.300781 5.109375 Z M 25 8.621094 C 26.042969 8.621094 27.070312 8.933594 27.726562 9.730469 C 28.230469 10.304688 28.511719 11.230469 28.511719 12.445312 L 28.511719 14.15625 C 28.511719 15.371094 28.277344 16.214844 27.785156 16.789062 C 27.128906 17.570312 26.042969 17.980469 25 17.980469 C 23.957031 17.980469 22.894531 17.570312 22.238281 16.789062 C 21.738281 16.214844 21.488281 15.371094 21.488281 14.15625 L 21.488281 12.457031 C 21.488281 11.238281 21.757812 10.304688 22.273438 9.730469 C 22.929688 8.933594 23.816406 8.621094 25 8.621094 Z M 29.679688 8.621094 L 32.019531 8.621094 L 32.019531 15.640625 C 32.078125 15.957031 32.417969 16.097656 32.734375 16.097656 C 33.210938 16.097656 33.820312 15.535156 34.359375 14.914062 L 34.359375 8.621094 L 36.699219 8.621094 L 36.699219 17.980469 L 34.359375 17.980469 L 34.359375 16.363281 C 33.414062 17.289062 32.605469 17.980469 31.539062 17.945312 C 30.769531 17.921875 30.230469 17.640625 29.960938 17.078125 C 29.796875 16.753906 29.679688 16.226562 29.679688 15.453125 Z M 25 10.515625 C 24.839844 10.515625 24.683594 10.550781 24.546875 10.609375 C 24.40625 10.671875 24.277344 10.757812 24.171875 10.867188 C 24.066406 10.972656 23.980469 11.101562 23.921875 11.246094 C 23.863281 11.386719 23.828125 11.546875 23.828125 11.710938 L 23.828125 14.996094 C 23.828125 15.324219 23.960938 15.621094 24.171875 15.839844 C 24.277344 15.945312 24.40625 16.035156 24.546875 16.09375 C 24.683594 16.15625 24.839844 16.191406 25 16.191406 C 25.160156 16.191406 25.316406 16.15625 25.453125 16.09375 C 25.875 15.914062 26.171875 15.488281 26.171875 14.996094 L 26.171875 11.710938 C 26.171875 11.054688 25.644531 10.515625 25 10.515625 Z M 24.988281 21.488281 L 25.011719 21.488281 C 25.011719 21.488281 32.863281 21.492188 38.101562 21.863281 C 38.839844 21.945312 40.433594 21.957031 41.859375 23.421875 C 42.984375 24.519531 43.34375 27.046875 43.34375 27.046875 C 43.34375 27.046875 43.71875 28.839844 43.71875 31.796875 L 43.71875 34.570312 C 43.71875 37.53125 43.34375 39.320312 43.34375 39.320312 C 43.34375 39.320312 42.984375 41.847656 41.859375 42.949219 C 40.433594 44.410156 38.839844 44.421875 38.101562 44.503906 C 32.863281 44.878906 25 44.890625 25 44.890625 C 25 44.890625 15.265625 44.796875 12.269531 44.515625 C 11.4375 44.363281 9.566406 44.410156 8.140625 42.960938 C 7.015625 41.847656 6.65625 39.320312 6.65625 39.320312 C 6.65625 39.320312 6.28125 37.53125 6.28125 34.570312 L 6.28125 31.796875 C 6.28125 28.839844 6.65625 27.046875 6.65625 27.046875 C 6.65625 27.046875 7.015625 24.519531 8.140625 23.421875 C 9.566406 21.957031 11.160156 21.945312 11.898438 21.863281 C 17.136719 21.492188 24.988281 21.488281 24.988281 21.488281 Z M 9.789062 26.171875 L 9.789062 28.484375 L 12.128906 28.484375 L 12.128906 40.210938 L 14.46875 40.210938 L 14.46875 28.484375 L 16.808594 28.484375 L 16.808594 26.171875 Z M 25 26.171875 L 25 40.210938 L 27.339844 40.210938 L 27.339844 38.746094 C 28.078125 39.660156 29.039062 40.210938 29.828125 40.210938 C 30.707031 40.210938 31.472656 39.738281 31.769531 38.828125 C 31.90625 38.339844 32.011719 37.882812 32.019531 36.847656 L 32.019531 33.628906 C 32.019531 32.472656 31.863281 31.601562 31.714844 31.109375 C 31.421875 30.195312 30.707031 29.6875 29.828125 29.679688 C 28.679688 29.671875 28.21875 30.265625 27.339844 31.289062 L 27.339844 26.171875 Z M 16.808594 29.679688 L 16.808594 37.503906 C 16.808594 38.347656 16.925781 38.914062 17.078125 39.285156 C 17.335938 39.886719 17.863281 40.210938 18.609375 40.210938 C 19.464844 40.210938 20.566406 39.609375 21.488281 38.613281 L 21.488281 40.210938 L 23.828125 40.210938 L 23.828125 29.679688 L 21.488281 29.679688 L 21.488281 37.015625 C 20.976562 37.699219 20.226562 38.207031 19.757812 38.207031 C 19.453125 38.207031 19.207031 38.082031 19.148438 37.746094 L 19.148438 29.679688 Z M 36.734375 29.679688 C 35.554688 29.679688 34.632812 30.050781 33.96875 30.75 C 33.476562 31.269531 33.191406 32.113281 33.191406 33.210938 L 33.191406 36.796875 C 33.191406 37.886719 33.503906 38.648438 33.996094 39.160156 C 34.664062 39.863281 35.582031 40.210938 36.789062 40.210938 C 37.996094 40.210938 38.945312 39.84375 39.582031 39.097656 C 39.863281 38.769531 40.042969 38.402344 40.125 37.988281 C 40.144531 37.804688 40.210938 37.296875 40.210938 36.699219 L 37.871094 36.699219 L 37.871094 37.632812 C 37.871094 38.175781 37.347656 38.617188 36.699219 38.617188 C 36.054688 38.617188 35.53125 38.175781 35.53125 37.632812 L 35.53125 35.53125 L 40.210938 35.53125 L 40.210938 33.164062 C 40.210938 32.070312 39.941406 31.269531 39.457031 30.75 C 38.8125 30.050781 37.890625 29.679688 36.734375 29.679688 Z M 36.699219 31.375 C 37.347656 31.375 37.871094 31.8125 37.871094 32.355469 L 37.871094 33.910156 L 35.53125 33.910156 L 35.53125 32.355469 C 35.53125 31.8125 36.054688 31.375 36.699219 31.375 Z M 28.769531 31.722656 C 29.40625 31.722656 29.679688 32.113281 29.679688 33.335938 L 29.679688 36.554688 C 29.679688 37.773438 29.40625 38.195312 28.769531 38.195312 C 28.40625 38.195312 27.710938 37.945312 27.339844 37.578125 L 27.339844 32.457031 C 27.710938 32.09375 28.40625 31.722656 28.769531 31.722656 Z M 28.769531 31.722656 "/>
</g>
</svg>
